# xmcd
#
# Track frame offsets:
#	150
#	17107
#	34854
#	53178
#	78151
#	95979
#	111409
#	154566
#	176840
#	192689
#	215307
#	244261
#	262669
#	283803
#	302592
#
# Disc length: 4361 seconds
#
# Revision: 1
# Processed by: cddbd v1.5.2PL0 Copyright (c) Steve Scherf et al.
# Submitted via: audiograbber 1.83.01
#
DISCID=d311070f
DTITLE=NRPS - 71-12-02 Boston Music Hall, Boston MA
DYEAR=1900
DGENRE=
TTITLE0=Intro
TTITLE1=Workingman Blues
TTITLE2=Rainbow
TTITLE3=Swinging Doors
TTITLE4=I Don't Know You
TTITLE5=Henry
TTITLE6=Dirty Business
TTITLE7=Hello Mary Lou
TTITLE8=Only Daddy That'll Walk The Line
TTITLE9=Glendale Train
TTITLE10=Portland Woman
TTITLE11=Fair Chance To Know
TTITLE12=Sweet Loving One
TTITLE13=Louisiana Lady
TTITLE14=Willy and The Hand Jive
EXTD=
EXTT0=
EXTT1=
EXTT2=
EXTT3=
EXTT4=
EXTT5=
EXTT6=
EXTT7=
EXTT8=
EXTT9=
EXTT10=
EXTT11=
EXTT12=
EXTT13=
EXTT14=
PLAYORDER=
